<?xml version="1.0" standalone="no"?>
<!DOCTYPE svg PUBLIC "-//W3C//DTD SVG 20010904//EN"
 "http://www.w3.org/TR/2001/REC-SVG-20010904/DTD/svg10.dtd">
<svg version="1.0" xmlns="http://www.w3.org/2000/svg"
 width="30.000000pt" height="30.000000pt" viewBox="0 0 30.000000 30.000000"
 preserveAspectRatio="xMidYMid meet">

<g transform="translate(0.000000,30.000000) scale(0.100000,-0.100000)"
fill="#000000" stroke="none">
<path d="M66 264 c-18 -17 -20 -32 -7 -53 6 -9 2 -25 -10 -45 -10 -17 -19 -36
-19 -42 0 -10 33 -57 70 -102 14 -15 35 -15 52 1 7 6 24 13 38 15 14 1 31 11
38 22 8 10 23 29 33 41 25 29 17 73 -19 111 -25 27 -88 55 -99 44 -3 -3 -12 1
-20 9 -19 19 -38 19 -57 -1z m52 -27 c4 -20 -25 -34 -40 -19 -15 15 -1 44 19
40 10 -2 19 -11 21 -21z m69 2 c29 -11 73 -47 73 -60 0 -4 -8 -5 -19 -2 -19 5
-51 -20 -51 -40 0 -16 12 -32 32 -43 13 -7 14 -12 5 -25 -18 -24 -57 -34 -57
-15 0 18 -27 46 -45 46 -7 0 -21 -7 -30 -16 -12 -13 -19 -13 -30 -4 -23 19
-27 47 -10 80 22 43 48 39 76 -14 13 -25 25 -43 27 -41 3 2 -8 25 -22 50 -15
25 -22 45 -17 45 6 0 13 11 17 25 7 28 11 29 51 14z m71 -102 c4 -20 -25 -34
-40 -19 -15 15 -1 44 19 40 10 -2 19 -11 21 -21z m-110 -80 c4 -20 -25 -34
-40 -19 -15 15 -1 44 19 40 10 -2 19 -11 21 -21z"/>
</g>
</svg>
