<?xml version="1.0" standalone="no"?>
<!DOCTYPE svg PUBLIC "-//W3C//DTD SVG 20010904//EN"
 "http://www.w3.org/TR/2001/REC-SVG-20010904/DTD/svg10.dtd">
<svg version="1.0" xmlns="http://www.w3.org/2000/svg"
 width="30.000000pt" height="30.000000pt" viewBox="0 0 30.000000 30.000000"
 preserveAspectRatio="xMidYMid meet">

<g transform="translate(0.000000,30.000000) scale(0.100000,-0.100000)"
fill="#000000" stroke="none">
<path d="M56 264 c-9 -8 -16 -22 -16 -29 0 -18 27 -45 45 -45 18 0 45 28 45
46 0 26 59 7 105 -34 l30 -27 -29 32 c-28 31 -91 61 -103 49 -3 -3 -12 1 -20
9 -19 19 -38 19 -57 -1z m52 -27 c4 -20 -25 -34 -40 -19 -15 15 -1 44 19 40
10 -2 19 -11 21 -21z"/>
<path d="M35 160 c-17 -34 -13 -61 12 -82 13 -11 13 -8 -2 15 -17 27 -17 30
-2 63 21 42 13 45 -8 4z"/>
<path d="M121 146 c12 -20 23 -36 25 -36 7 0 -25 58 -36 65 -5 3 -1 -10 11
-29z"/>
<path d="M196 164 c-9 -8 -16 -22 -16 -29 0 -18 27 -45 45 -45 18 0 45 27 45
45 0 18 -27 45 -45 45 -7 0 -21 -7 -29 -16z m52 -27 c4 -20 -25 -34 -40 -19
-15 15 -1 44 19 40 10 -2 19 -11 21 -21z"/>
<path d="M86 84 c-20 -20 -20 -38 0 -58 19 -19 38 -20 56 -4 7 7 19 13 26 14
6 1 19 2 27 3 8 0 19 11 25 24 9 19 9 20 -2 6 -19 -24 -58 -34 -58 -15 0 18
-27 46 -45 46 -7 0 -21 -7 -29 -16z m52 -27 c4 -20 -25 -34 -40 -19 -15 15 -1
44 19 40 10 -2 19 -11 21 -21z"/>
</g>
</svg>
